# Blender v2.80 (sub 75) OBJ File: 'maple_seed.blend'
# www.blender.org
mtllib maple_seed.mtl
o Cube
v 0.034374 0.217180 -1.000000
v 0.034374 -0.335148 -1.000000
v 0.034374 0.715142 1.000000
v 0.034374 -0.429466 1.000000
v -0.034374 0.217180 -1.000000
v -0.034374 -0.335148 -1.000000
v -0.034374 0.715142 1.000000
v -0.034374 -0.429466 1.000000
v 0.034374 0.946089 2.376630
v 0.034374 -0.895122 2.376630
v -0.034374 0.946089 2.376630
v -0.034374 -0.895122 2.376630
v 0.034374 0.345038 3.462296
v 0.034374 -0.375043 3.462296
v -0.034374 0.345038 3.462296
v -0.034374 -0.375043 3.462296
v -0.034374 -0.352950 0.000000
v 0.034374 0.438506 0.000000
v -0.034374 0.438506 0.000000
v 0.034374 -0.352950 0.000000
v -0.034374 -0.538707 1.702545
v -0.034374 1.000000 1.702545
v 0.034374 -0.538707 1.702545
v 0.034374 1.000000 1.702545
v -0.034374 0.695018 2.986069
v 0.034374 0.695018 2.986069
v -0.034374 -0.646422 2.986069
v 0.034374 -0.646422 2.986069
v 0.034374 0.000000 -1.000000
v -0.034374 0.000000 1.000000
v 0.034374 0.000000 1.000000
v -0.034374 0.000000 -1.000000
v 0.034374 0.000000 0.000000
v -0.034374 0.000000 0.000000
v 0.034374 0.000000 1.702545
v -0.034374 0.000000 1.702545
v -0.034374 0.000000 3.462296
v -0.034374 0.000000 2.986069
v 0.034374 0.000000 2.986069
v 0.034374 0.000000 2.376630
v -0.034374 0.000000 2.376630
v -0.034374 -0.391208 0.500000
v 0.034374 0.576824 0.500000
v -0.034374 0.576824 0.500000
v 0.034374 -0.391208 0.500000
v -0.034374 0.000000 0.500000
v 0.034374 0.000000 0.500000
v -0.034374 0.327843 -0.500000
v 0.034374 -0.344049 -0.500000
v -0.034374 -0.344049 -0.500000
v 0.034374 0.327843 -0.500000
v 0.034374 0.000000 -0.500000
v -0.034374 0.000000 -0.500000
v 0.034374 -0.015003 3.462296
v -0.034374 0.217180 -1.000000
v -0.034374 -0.335148 -1.000000
v -0.034374 0.715142 1.000000
v -0.034374 -0.429466 1.000000
v 0.034374 0.217180 -1.000000
v 0.034374 -0.335148 -1.000000
v 0.034374 0.715142 1.000000
v 0.034374 -0.429466 1.000000
v -0.034374 0.946089 2.376630
v -0.034374 -0.895122 2.376630
v 0.034374 0.946089 2.376630
v 0.034374 -0.895122 2.376630
v -0.034374 0.345038 3.462296
v -0.034374 -0.375043 3.462296
v 0.034374 0.345038 3.462296
v 0.034374 -0.375043 3.462296
v 0.034374 -0.352950 0.000000
v -0.034374 0.438506 0.000000
v 0.034374 0.438506 0.000000
v -0.034374 -0.352950 0.000000
v 0.034374 -0.538707 1.702545
v 0.034374 1.000000 1.702545
v -0.034374 -0.538707 1.702545
v -0.034374 1.000000 1.702545
v 0.034374 0.695018 2.986069
v -0.034374 0.695018 2.986069
v 0.034374 -0.646422 2.986069
v -0.034374 -0.646422 2.986069
v -0.034374 0.000000 -1.000000
v 0.034374 0.000000 1.000000
v -0.034374 0.000000 1.000000
v 0.034374 0.000000 -1.000000
v -0.034374 0.000000 0.000000
v 0.034374 0.000000 0.000000
v -0.034374 0.000000 1.702545
v 0.034374 0.000000 1.702545
v 0.034374 0.000000 3.462296
v 0.034374 0.000000 2.986069
v -0.034374 0.000000 2.986069
v -0.034374 0.000000 2.376630
v 0.034374 0.000000 2.376630
v 0.034374 -0.391208 0.500000
v -0.034374 0.576824 0.500000
v 0.034374 0.576824 0.500000
v -0.034374 -0.391208 0.500000
v 0.034374 0.000000 0.500000
v -0.034374 0.000000 0.500000
v 0.034374 0.327843 -0.500000
v -0.034374 -0.344049 -0.500000
v 0.034374 -0.344049 -0.500000
v -0.034374 0.327843 -0.500000
v -0.034374 0.000000 -0.500000
v 0.034374 0.000000 -0.500000
v -0.034374 -0.015003 3.462296
vt 0.375000 0.187500
vt 0.625000 0.187500
vt 0.625000 0.250000
vt 0.375000 0.250000
vt 0.625000 0.500000
vt 0.500000 0.500000
vt 0.375000 0.500000
vt 0.375000 0.500000
vt 0.500000 0.500000
vt 0.625000 0.500000
vt 0.500000 0.687500
vt 0.625000 0.687500
vt 0.625000 0.750000
vt 0.500000 0.750000
vt 0.375000 0.937500
vt 0.625000 0.937500
vt 0.625000 1.000000
vt 0.375000 1.000000
vt 0.250000 0.687500
vt 0.375000 0.687500
vt 0.375000 0.750000
vt 0.250000 0.750000
vt 0.750000 0.500000
vt 0.875000 0.500000
vt 0.875000 0.750000
vt 0.750000 0.750000
vt 0.375000 0.250000
vt 0.500000 0.250000
vt 0.625000 0.250000
vt 0.375000 1.000000
vt 0.625000 1.000000
vt 0.625000 1.000000
vt 0.375000 1.000000
vt 0.375000 0.250000
vt 0.625000 0.250000
vt 0.625000 0.250000
vt 0.375000 0.250000
vt 0.125000 0.750000
vt 0.250000 0.750000
vt 0.375000 0.750000
vt 0.375000 0.750000
vt 0.250000 0.750000
vt 0.125000 0.750000
vt 0.625000 0.250000
vt 0.625000 0.500000
vt 0.625000 0.500000
vt 0.625000 0.250000
vt 0.500000 0.500000
vt 0.375000 0.500000
vt 0.375000 0.500000
vt 0.500000 0.500000
vt 0.375000 0.250000
vt 0.375000 0.250000
vt 0.250000 0.562500
vt 0.375000 0.562500
vt 0.375000 0.625000
vt 0.250000 0.625000
vt 0.375000 0.812500
vt 0.625000 0.812500
vt 0.625000 0.875000
vt 0.375000 0.875000
vt 0.500000 0.562500
vt 0.625000 0.562500
vt 0.625000 0.625000
vt 0.500000 0.625000
vt 0.375000 0.062500
vt 0.625000 0.062500
vt 0.625000 0.125000
vt 0.375000 0.125000
vt 0.500000 0.500000
vt 0.375000 0.500000
vt 0.500000 0.250000
vt 0.625000 0.500000
vt 0.125000 0.750000
vt 0.375000 0.562500
vt 0.375000 0.625000
vt 0.125000 0.562500
vt 0.125000 0.625000
vt 0.625000 0.500000
vt 0.625000 0.750000
vt 0.125000 0.687500
vt 0.375000 0.687500
vt 0.375000 0.750000
vt 0.125000 0.500000
vt 0.250000 0.500000
vt 0.375000 0.000000
vt 0.625000 0.000000
vt 0.375000 0.500000
vt 0.375000 0.187500
vt 0.375000 0.250000
vt 0.625000 0.250000
vt 0.625000 0.187500
vt 0.625000 0.500000
vt 0.625000 0.500000
vt 0.500000 0.500000
vt 0.375000 0.500000
vt 0.375000 0.500000
vt 0.500000 0.500000
vt 0.500000 0.687500
vt 0.500000 0.750000
vt 0.625000 0.750000
vt 0.625000 0.687500
vt 0.375000 0.937500
vt 0.375000 1.000000
vt 0.625000 1.000000
vt 0.625000 0.937500
vt 0.250000 0.687500
vt 0.250000 0.750000
vt 0.375000 0.750000
vt 0.375000 0.687500
vt 0.750000 0.500000
vt 0.750000 0.750000
vt 0.875000 0.750000
vt 0.875000 0.500000
vt 0.375000 0.250000
vt 0.625000 0.250000
vt 0.500000 0.250000
vt 0.375000 1.000000
vt 0.375000 1.000000
vt 0.625000 1.000000
vt 0.625000 1.000000
vt 0.375000 0.250000
vt 0.375000 0.250000
vt 0.625000 0.250000
vt 0.625000 0.250000
vt 0.125000 0.750000
vt 0.125000 0.750000
vt 0.250000 0.750000
vt 0.375000 0.750000
vt 0.375000 0.750000
vt 0.250000 0.750000
vt 0.625000 0.250000
vt 0.625000 0.250000
vt 0.625000 0.500000
vt 0.625000 0.500000
vt 0.500000 0.500000
vt 0.500000 0.500000
vt 0.375000 0.500000
vt 0.375000 0.500000
vt 0.375000 0.250000
vt 0.375000 0.250000
vt 0.250000 0.562500
vt 0.250000 0.625000
vt 0.375000 0.625000
vt 0.375000 0.562500
vt 0.375000 0.812500
vt 0.375000 0.875000
vt 0.625000 0.875000
vt 0.625000 0.812500
vt 0.500000 0.562500
vt 0.500000 0.625000
vt 0.625000 0.625000
vt 0.625000 0.562500
vt 0.375000 0.062500
vt 0.375000 0.125000
vt 0.625000 0.125000
vt 0.625000 0.062500
vt 0.500000 0.500000
vt 0.375000 0.500000
vt 0.500000 0.250000
vt 0.625000 0.500000
vt 0.125000 0.750000
vt 0.375000 0.562500
vt 0.375000 0.625000
vt 0.125000 0.562500
vt 0.125000 0.625000
vt 0.625000 0.500000
vt 0.625000 0.750000
vt 0.125000 0.687500
vt 0.375000 0.687500
vt 0.375000 0.750000
vt 0.125000 0.500000
vt 0.250000 0.500000
vt 0.375000 0.000000
vt 0.625000 0.000000
vt 0.375000 0.500000
vn 0.0000 0.9638 -0.2666
vn -1.0000 0.0000 0.0000
vn 0.0000 -0.9971 -0.0763
vn 1.0000 0.0000 0.0000
vn 0.0000 0.0000 -1.0000
vn 0.0000 0.0000 1.0000
vn 0.0000 -0.8840 -0.4674
vn 0.0000 0.9968 0.0797
vn 0.0000 0.8058 0.5922
vn 0.0000 -0.8688 0.4951
vn 0.0000 -0.9998 -0.0178
vn 0.0000 0.9764 -0.2161
vn 0.0000 0.9267 -0.3758
vn 0.0000 -0.9881 -0.1536
vn 0.0000 -0.9259 0.3778
vn 0.0000 0.9246 0.3809
usemtl Material
s off
f 43/1/1 44/2/1 7/3/1 3/4/1
f 22/5/2 36/6/2 21/7/2 12/8/2 41/9/2 11/10/2
f 53/11/2 48/12/2 5/13/2 32/14/2
f 42/15/3 45/16/3 4/17/3 8/18/3
f 47/19/4 43/20/4 3/21/4 31/22/4
f 32/23/5 5/24/5 1/25/5 29/26/5
f 10/27/6 40/28/6 9/29/6 11/10/6 41/9/6 12/8/6
f 21/30/7 23/31/7 10/32/7 12/33/7
f 24/34/8 22/35/8 11/36/8 9/37/8
f 23/38/4 35/39/4 24/40/4 9/41/4 40/42/4 10/43/4
f 26/44/9 25/45/9 15/46/9 13/47/9
f 38/48/2 27/49/2 16/50/2 37/51/2
f 27/49/10 28/52/10 14/53/10 16/50/10
f 52/54/4 51/55/4 18/56/4 33/57/4
f 50/58/11 49/59/11 20/60/11 17/61/11
f 46/62/2 44/63/2 19/64/2 34/65/2
f 51/66/12 48/67/12 19/68/12 18/69/12
f 31/22/4 3/21/4 24/40/4 35/39/4
f 3/4/13 7/3/13 22/35/13 24/34/13
f 8/18/14 4/17/14 23/31/14 21/30/14
f 30/70/2 8/71/2 21/7/2 36/6/2
f 10/27/4 40/28/4 9/29/4 26/44/4 39/72/4 28/52/4
f 12/8/15 10/27/15 28/52/15 27/49/15
f 11/10/2 41/9/2 12/8/2 27/49/2 38/48/2 25/45/2
f 9/29/16 11/10/16 25/45/16 26/44/16
f 7/73/2 30/70/2 36/6/2 22/5/2
f 4/74/4 31/22/4 35/39/4 23/38/4
f 42/75/2 46/62/2 34/65/2 17/76/2
f 49/77/4 52/54/4 33/57/4 20/78/4
f 6/79/5 32/23/5 29/26/5 2/80/5
f 45/81/4 47/19/4 31/22/4 4/74/4
f 50/82/2 53/11/2 32/14/2 6/83/2
f 25/45/2 38/48/2 37/51/2 15/46/2
f 20/78/4 33/57/4 47/19/4 45/81/4
f 8/71/2 30/70/2 46/62/2 42/75/2
f 30/70/2 7/73/2 44/63/2 46/62/2
f 33/57/4 18/56/4 43/20/4 47/19/4
f 17/61/3 20/60/3 45/16/3 42/15/3
f 18/69/1 19/68/1 44/2/1 43/1/1
f 17/76/2 34/65/2 53/11/2 50/82/2
f 2/84/4 29/85/4 52/54/4 49/77/4
f 1/86/12 5/87/12 48/67/12 51/66/12
f 6/83/11 2/80/11 49/59/11 50/58/11
f 29/85/4 1/88/4 51/55/4 52/54/4
f 34/65/2 19/64/2 48/12/2 53/11/2
f 13/47/6 15/46/6 16/50/6 14/53/6
f 97/89/1 57/90/1 61/91/1 98/92/1
f 76/93/4 65/94/4 95/95/4 66/96/4 75/97/4 90/98/4
f 107/99/4 86/100/4 59/101/4 102/102/4
f 96/103/3 62/104/3 58/105/3 99/106/3
f 101/107/2 85/108/2 57/109/2 97/110/2
f 86/111/5 83/112/5 55/113/5 59/114/5
f 64/115/6 66/96/6 95/95/6 65/94/6 63/116/6 94/117/6
f 75/118/7 66/119/7 64/120/7 77/121/7
f 78/122/8 63/123/8 65/124/8 76/125/8
f 77/126/2 64/127/2 94/128/2 63/129/2 78/130/2 89/131/2
f 80/132/9 67/133/9 69/134/9 79/135/9
f 92/136/4 91/137/4 70/138/4 81/139/4
f 81/139/10 70/138/10 68/140/10 82/141/10
f 106/142/2 87/143/2 72/144/2 105/145/2
f 104/146/11 71/147/11 74/148/11 103/149/11
f 100/150/4 88/151/4 73/152/4 98/153/4
f 105/154/12 72/155/12 73/156/12 102/157/12
f 85/108/2 89/131/2 78/130/2 57/109/2
f 57/90/13 78/122/13 76/125/13 61/91/13
f 62/104/14 75/118/14 77/121/14 58/105/14
f 84/158/4 90/98/4 75/97/4 62/159/4
f 64/115/2 82/141/2 93/160/2 80/132/2 63/116/2 94/117/2
f 66/96/15 81/139/15 82/141/15 64/115/15
f 65/94/4 79/135/4 92/136/4 81/139/4 66/96/4 95/95/4
f 63/116/16 80/132/16 79/135/16 65/94/16
f 61/161/4 76/93/4 90/98/4 84/158/4
f 58/162/2 77/126/2 89/131/2 85/108/2
f 96/163/4 71/164/4 88/151/4 100/150/4
f 103/165/2 74/166/2 87/143/2 106/142/2
f 60/167/5 56/168/5 83/112/5 86/111/5
f 99/169/2 58/162/2 85/108/2 101/107/2
f 104/170/4 60/171/4 86/100/4 107/99/4
f 79/135/4 69/134/4 91/137/4 92/136/4
f 74/166/2 99/169/2 101/107/2 87/143/2
f 62/159/4 96/163/4 100/150/4 84/158/4
f 84/158/4 100/150/4 98/153/4 61/161/4
f 87/143/2 101/107/2 97/110/2 72/144/2
f 71/147/3 96/103/3 99/106/3 74/148/3
f 72/155/1 97/89/1 98/92/1 73/156/1
f 71/164/4 104/170/4 107/99/4 88/151/4
f 56/172/2 103/165/2 106/142/2 83/173/2
f 55/174/12 105/154/12 102/157/12 59/175/12
f 60/171/11 104/146/11 103/149/11 56/168/11
f 83/173/2 106/142/2 105/145/2 55/176/2
f 88/151/4 107/99/4 102/102/4 73/152/4
f 67/133/6 68/140/6 70/138/6 69/134/6
l 38 41
l 35 40
l 54 14
l 13 54
l 39 54
l 37 54
l 92 95
l 89 94
l 108 68
l 67 108
l 93 108
l 91 108
o Sphere
v 0.000000 0.980785 -1.690897
v 0.000000 0.555570 -2.327276
v 0.000000 -0.195090 -2.476592
v 0.000000 -0.831470 -2.051377
v 0.137950 0.980785 -1.633756
v 0.587938 0.555570 -2.083744
v 0.693520 -0.195090 -2.189326
v 0.392848 -0.831470 -1.888654
v 0.195091 0.980785 -1.495806
v 0.831470 0.555570 -1.495806
v 0.980785 -0.195090 -1.495806
v 0.555570 -0.831470 -1.495806
v 0.137950 0.980785 -1.357856
v 0.587938 0.555570 -0.907868
v 0.693520 -0.195090 -0.802286
v 0.392848 -0.831470 -1.102958
v 0.000000 -1.000000 -1.495806
v -0.000000 0.980785 -1.300715
v -0.000000 0.555570 -0.664337
v -0.000000 -0.195090 -0.515021
v -0.000000 -0.831470 -0.940236
v -0.000000 1.000000 -1.495806
v -0.137950 0.980785 -1.357856
v -0.587938 0.555570 -0.907869
v -0.693520 -0.195090 -0.802286
v -0.392847 -0.831470 -1.102959
v -0.195090 0.980785 -1.495806
v -0.831469 0.555570 -1.495806
v -0.980785 -0.195090 -1.495806
v -0.555570 -0.831470 -1.495806
v -0.137950 0.980785 -1.633756
v -0.587937 0.555570 -2.083744
v -0.693519 -0.195090 -2.189326
v -0.392847 -0.831470 -1.888653
vt 0.500000 0.187500
vt 0.625000 0.187500
vt 0.625000 0.437500
vt 0.500000 0.437500
vt 0.750000 0.437500
vt 0.750000 0.687500
vt 0.625000 0.687500
vt 0.250000 0.687500
vt 0.375000 0.687500
vt 0.375000 0.937500
vt 0.250000 0.937500
vt 0.750000 0.937500
vt 0.625000 0.937500
vt 0.671875 0.000000
vt 1.000000 0.687500
vt 0.125000 0.687500
vt 0.125000 0.937500
vt 1.000000 0.937500
vt 0.375000 0.437500
vt 0.500000 0.687500
vt 0.500000 0.937500
vt 0.375000 0.187500
vt 0.546875 0.000000
vt 0.390625 1.000000
vt 0.250000 0.437500
vt 0.250000 0.187500
vt 0.875000 0.687500
vt 0.000000 0.687500
vt 0.875000 0.937500
vt 0.421875 0.000000
vt 0.265625 1.000000
vt 0.125000 0.187500
vt 0.125000 0.437500
vt 0.875000 0.187500
vt 0.750000 0.187500
vt 0.921875 0.000000
vt 0.296875 0.000000
vt 0.140625 1.000000
vt 1.000000 0.437500
vt 1.000000 0.187500
vt 0.171875 0.000000
vt 0.015625 1.000000
vt 0.000000 0.187500
vt 0.000000 0.437500
vt 0.875000 0.437500
vt 0.046875 0.000000
vt 0.890625 1.000000
vt 0.765625 1.000000
vt 0.640625 1.000000
vt 0.515625 1.000000
vt 0.796875 0.000000
vn 0.7862 -0.5253 -0.3256
vn 0.3764 0.1807 -0.9087
vn 0.2243 0.8103 0.5414
vn 0.2243 0.8103 -0.5414
vn 0.2882 -0.9501 -0.1194
vn -0.5414 0.8103 0.2243
vn 0.9087 0.1807 0.3764
vn 0.5414 0.8103 0.2243
vn 0.2882 -0.9501 0.1194
vn 0.0979 0.9944 0.0406
vn 0.3764 0.1807 0.9087
vn 0.3256 -0.5253 0.7862
vn -0.5414 0.8103 -0.2243
vn 0.1194 -0.9501 0.2882
vn 0.0406 0.9944 0.0979
vn -0.3256 -0.5253 0.7862
vn -0.3764 0.1807 0.9087
vn -0.1194 -0.9501 -0.2882
vn -0.1194 -0.9501 0.2882
vn -0.0406 0.9944 0.0979
vn -0.9087 0.1807 0.3764
vn -0.7862 -0.5253 0.3256
vn -0.2882 -0.9501 0.1194
vn -0.0979 0.9944 0.0406
vn -0.7862 -0.5253 -0.3256
vn -0.9087 0.1807 -0.3764
vn -0.2882 -0.9501 -0.1194
vn -0.0979 0.9944 -0.0406
vn -0.3256 -0.5253 -0.7862
vn -0.0406 0.9944 -0.0979
vn 0.0406 0.9944 -0.0979
vn 0.9087 0.1807 -0.3764
vn 0.5414 0.8103 -0.2243
vn 0.0979 0.9944 -0.0406
vn -0.2243 0.8103 -0.5414
vn 0.3256 -0.5253 -0.7862
vn 0.7862 -0.5253 0.3256
vn -0.2243 0.8103 0.5414
vn 0.1194 -0.9501 -0.2882
vn -0.3764 0.1807 -0.9087
usemtl None
s off
f 120/177/17 116/178/17 115/179/17 119/180/17
f 115/179/18 111/181/18 110/182/18 114/183/18
f 127/184/19 122/185/19 121/186/19 126/187/19
f 114/183/20 110/182/20 109/188/20 113/189/20
f 116/178/21 120/177/21 125/190/21
f 136/191/22 132/192/22 131/193/22 135/194/22
f 123/195/23 119/180/23 118/196/23 122/185/23
f 122/185/24 118/196/24 117/197/24 121/186/24
f 120/177/25 124/198/25 125/199/25
f 117/197/26 130/200/26 121/186/26
f 128/201/27 123/195/27 122/185/27 127/184/27
f 129/202/28 124/198/28 123/195/28 128/201/28
f 140/203/29 136/204/29 135/194/29 139/205/29
f 124/198/30 129/202/30 125/206/30
f 121/186/31 130/207/31 126/187/31
f 134/208/32 129/202/32 128/201/32 133/209/32
f 133/209/33 128/201/33 127/184/33 132/192/33
f 142/210/34 112/211/34 125/212/34
f 129/202/35 134/208/35 125/213/35
f 126/187/36 130/214/36 131/193/36
f 137/215/37 133/209/37 132/192/37 136/191/37
f 138/216/38 134/208/38 133/209/38 137/215/38
f 134/208/39 138/216/39 125/217/39
f 131/193/40 130/218/40 135/194/40
f 142/210/41 138/219/41 137/220/41 141/221/41
f 141/221/42 137/220/42 136/204/42 140/203/42
f 138/216/43 142/210/43 125/222/43
f 135/194/44 130/223/44 139/205/44
f 142/210/45 141/221/45 111/181/45 112/211/45
f 139/205/46 130/224/46 109/188/46
f 109/188/47 130/225/47 113/189/47
f 119/180/48 115/179/48 114/183/48 118/196/48
f 118/196/49 114/183/49 113/189/49 117/197/49
f 113/189/50 130/226/50 117/197/50
f 139/205/51 109/188/51 110/182/51 140/203/51
f 112/211/52 111/181/52 115/179/52 116/178/52
f 124/198/53 120/177/53 119/180/53 123/195/53
f 132/192/54 127/184/54 126/187/54 131/193/54
f 112/211/55 116/178/55 125/227/55
f 140/203/56 110/182/56 111/181/56 141/221/56
